<svg width="40" height="40" viewBox="0 0 40 40" fill="none" xmlns="http://www.w3.org/2000/svg">
<g clip-path="url(#clip0_32_1617)">
<path d="M20 0C8.97217 0 0 8.9713 0 20C0 31.0287 8.97217 40 20 40C31.0287 40 40 31.0287 40 20C40 8.9713 31.0287 0 20 0ZM26.087 12.1739H23.2261C21.5409 12.1739 20.8696 12.5696 20.8696 13.7443V16.5217H26.087L25.2174 20.8696H20.8696V32.1739H15.6522V20.8696H13.0435V16.5217H15.6522V14.1096C15.6522 10.4357 17.1183 7.82609 21.3748 7.82609C23.6548 7.82609 26.087 8.69565 26.087 8.69565V12.1739Z" fill="#242424"/>
</g>
<defs>
<clipPath id="clip0_32_1617">
<rect width="40" height="40" fill="white"/>
</clipPath>
</defs>
</svg>
