<svg width="69" height="35" viewBox="0 0 69 35" fill="none" xmlns="http://www.w3.org/2000/svg">
<path fill-rule="evenodd" clip-rule="evenodd" d="M49.7446 0H68.6595V35H49.7446V27.2911H50.9365L58.2895 14.9183L58.3216 29.9362H63.7445L63.6731 4.91489H58.9281L49.7446 20.4279V0ZM49.7446 20.4279L49.7306 20.4514L40.3762 4.91489H35.5955V29.9362H41.0184V15.2418L48.3321 27.2911H49.7446V20.4279Z" fill="#EEEEEE"/>
<path fill-rule="evenodd" clip-rule="evenodd" d="M0 0H30.6809V35H0V0ZM9.32548 29.4511C11.1514 29.9731 13.0604 30.2341 15.0524 30.2341C17.4237 30.2341 19.3801 29.8782 20.9215 29.1664C22.4866 28.4546 23.6605 27.5175 24.443 26.3549C25.2256 25.1924 25.6168 23.9112 25.6168 22.5114C25.6168 21.2065 25.3441 20.127 24.7987 19.2729C24.277 18.4187 23.5893 17.7307 22.7356 17.2087C21.8819 16.6868 20.9334 16.2716 19.89 15.9631C18.8703 15.6547 17.8387 15.3819 16.7953 15.1446C15.7756 14.9074 14.8389 14.6701 13.9852 14.4328C13.1315 14.1956 12.4438 13.8872 11.9221 13.5075C11.4004 13.1042 11.1396 12.5822 11.1396 11.9417C11.1396 11.396 11.2937 10.9215 11.602 10.5181C11.9103 10.0911 12.4201 9.74704 13.1315 9.48606C13.843 9.22508 14.7559 9.09459 15.8705 9.09459C16.985 9.09459 18.1233 9.26067 19.2853 9.59283C20.4472 9.90126 21.6092 10.3876 22.7712 11.0519L24.5497 6.67458C23.3877 5.93909 22.0479 5.3934 20.5302 5.03752C19.0126 4.65791 17.4712 4.46811 15.906 4.46811C13.5584 4.46811 11.602 4.82399 10.0369 5.53576C8.49549 6.2238 7.33352 7.16096 6.55096 8.34723C5.79212 9.50979 5.4127 10.8028 5.4127 12.2264C5.4127 13.555 5.67355 14.6464 6.19526 15.5005C6.74067 16.3546 7.44023 17.0427 8.29393 17.5646C9.14762 18.0866 10.0843 18.5136 11.104 18.8458C12.1474 19.178 13.179 19.4627 14.1987 19.6999C15.2421 19.9134 16.1906 20.1507 17.0443 20.4117C17.898 20.6489 18.5857 20.9692 19.1074 21.3726C19.6291 21.7522 19.89 22.2741 19.89 22.9385C19.89 23.4604 19.724 23.9231 19.392 24.3264C19.06 24.7297 18.5383 25.05 17.8269 25.2873C17.1392 25.5008 16.2262 25.6076 15.0879 25.6076C13.594 25.6076 12.1118 25.3703 10.6416 24.8958C9.19505 24.3976 7.93822 23.7688 6.8711 23.0096L4.91471 27.3514C6.02926 28.2055 7.49952 28.9054 9.32548 29.4511Z" fill="#EEEEEE"/>
</svg>
