<svg width="69" height="36" viewBox="0 0 69 36" fill="none" xmlns="http://www.w3.org/2000/svg">
<path fill-rule="evenodd" clip-rule="evenodd" d="M49.7446 0.25H68.6595V35.25H49.7446V27.5411H50.9365L58.2895 15.1683L58.3216 30.1862H63.7445L63.6731 5.16489H58.9281L49.7446 20.6779V0.25ZM49.7446 20.6779L49.7306 20.7014L40.3762 5.16489H35.5955V30.1862H41.0184V15.4918L48.3321 27.5411H49.7446V20.6779Z" fill="#E86D28"/>
<path fill-rule="evenodd" clip-rule="evenodd" d="M0 0.25H30.6809V35.25H0V0.25ZM9.32548 29.7011C11.1514 30.2231 13.0604 30.4841 15.0524 30.4841C17.4237 30.4841 19.3801 30.1282 20.9215 29.4164C22.4866 28.7046 23.6605 27.7675 24.443 26.6049C25.2256 25.4424 25.6168 24.1612 25.6168 22.7614C25.6168 21.4565 25.3441 20.377 24.7987 19.5229C24.277 18.6687 23.5893 17.9807 22.7356 17.4587C21.8819 16.9368 20.9334 16.5216 19.89 16.2131C18.8703 15.9047 17.8387 15.6319 16.7953 15.3946C15.7756 15.1574 14.8389 14.9201 13.9852 14.6828C13.1315 14.4456 12.4438 14.1372 11.9221 13.7575C11.4004 13.3542 11.1396 12.8322 11.1396 12.1917C11.1396 11.646 11.2937 11.1715 11.602 10.7681C11.9103 10.3411 12.4201 9.99704 13.1315 9.73606C13.843 9.47508 14.7559 9.34459 15.8705 9.34459C16.985 9.34459 18.1233 9.51067 19.2853 9.84283C20.4472 10.1513 21.6092 10.6376 22.7712 11.3019L24.5497 6.92458C23.3877 6.18909 22.0479 5.6434 20.5302 5.28752C19.0126 4.90791 17.4712 4.71811 15.906 4.71811C13.5584 4.71811 11.602 5.07399 10.0369 5.78576C8.49549 6.4738 7.33352 7.41096 6.55096 8.59723C5.79212 9.75979 5.4127 11.0528 5.4127 12.4764C5.4127 13.805 5.67355 14.8964 6.19526 15.7505C6.74067 16.6046 7.44023 17.2927 8.29393 17.8146C9.14762 18.3366 10.0843 18.7636 11.104 19.0958C12.1474 19.428 13.179 19.7127 14.1987 19.9499C15.2421 20.1634 16.1906 20.4007 17.0443 20.6617C17.898 20.8989 18.5857 21.2192 19.1074 21.6226C19.6291 22.0022 19.89 22.5241 19.89 23.1885C19.89 23.7104 19.724 24.1731 19.392 24.5764C19.06 24.9797 18.5383 25.3 17.8269 25.5373C17.1392 25.7508 16.2262 25.8576 15.0879 25.8576C13.594 25.8576 12.1118 25.6203 10.6416 25.1458C9.19505 24.6476 7.93822 24.0188 6.8711 23.2596L4.91471 27.6014C6.02926 28.4555 7.49952 29.1554 9.32548 29.7011Z" fill="#E86D28"/>
</svg>
