<svg width="81" height="24" viewBox="0 0 81 24" fill="none" xmlns="http://www.w3.org/2000/svg">
<path d="M0.702148 23.3596V0.639648H23.4221V23.3596H0.702148ZM2.14215 11.2796H11.3421V2.07965H2.14215V11.2796ZM2.14215 21.9196H21.9821V2.07965H12.7821V12.7196H2.14215V21.9196Z" fill="#EEEEEE"/>
<path d="M29.4912 23.3596V0.639648H52.2112V23.3596H29.4912ZM41.5712 21.9196H50.7712V2.07965H30.9312V11.2796H41.5712V21.9196ZM30.9312 21.9196H40.1312V12.7196H30.9312V21.9196Z" fill="#EEEEEE"/>
<path d="M58.2803 23.3596V0.639648H81.0003V23.3596H58.2803ZM59.7203 21.9196H79.5603V12.7196H68.9203V2.07965H59.7203V21.9196ZM70.3603 11.2796H79.5603V2.07965H70.3603V11.2796Z" fill="#EEEEEE"/>
</svg>
